<?xml version="1.0" encoding="UTF-8"?>
<svg width="78px" height="14px" viewBox="0 0 78 14" version="1.1" xmlns="http://www.w3.org/2000/svg" xmlns:xlink="http://www.w3.org/1999/xlink">
    <title>°CANDID</title>
    <g id="Page-1" stroke="none" stroke-width="1" fill="none" fill-rule="evenodd">
        <g id="Desktop-HD" transform="translate(-133.000000, -37.000000)" fill="#172143" fill-rule="nonzero">
            <g id="°CANDID" transform="translate(133.408000, 37.004000)">
                <path d="M2.538,3.852 C2.862,3.852 3.138,3.738 3.366,3.51 C3.594,3.282 3.708,3.006 3.708,2.682 C3.708,2.37 3.594,2.097 3.366,1.863 C3.138,1.629 2.862,1.512 2.538,1.512 C2.214,1.512 1.938,1.626 1.71,1.854 C1.482,2.082 1.368,2.358 1.368,2.682 C1.368,3.006 1.479,3.282 1.701,3.51 C1.923,3.738 2.202,3.852 2.538,3.852 Z M4.32,4.482 C3.828,4.974 3.234,5.22 2.538,5.22 C1.842,5.22 1.245,4.974 0.747,4.482 C0.249,3.99 0,3.39 0,2.682 C0,1.974 0.249,1.374 0.747,0.882 C1.245,0.39 1.842,0.144 2.538,0.144 C3.234,0.144 3.831,0.39 4.329,0.882 C4.827,1.374 5.076,1.974 5.076,2.682 C5.076,3.39 4.824,3.99 4.32,4.482 Z" id="Shape"></path>
                <path d="M13.14,13.212 C11.304,13.212 9.744,12.573 8.46,11.295 C7.176,10.017 6.534,8.454 6.534,6.606 C6.534,4.758 7.176,3.195 8.46,1.917 C9.744,0.639 11.304,0 13.14,0 C14.376,0 15.498,0.291 16.506,0.873 C17.514,1.455 18.312,2.244 18.9,3.24 L17.082,4.284 C16.158,2.784 14.844,2.034 13.14,2.034 C11.88,2.034 10.818,2.478 9.954,3.366 C9.09,4.254 8.658,5.334 8.658,6.606 C8.658,7.878 9.09,8.958 9.954,9.846 C10.818,10.734 11.88,11.178 13.14,11.178 C14.844,11.178 16.158,10.428 17.082,8.928 L18.9,9.972 C18.312,10.968 17.514,11.757 16.506,12.339 C15.498,12.921 14.376,13.212 13.14,13.212 Z" id="Path"></path>
                <path d="M19.422,12.996 L25.002,0.216 L26.838,0.216 L32.418,12.996 L30.222,12.996 L28.764,9.648 L23.04,9.648 L21.6,12.996 L19.422,12.996 Z M25.902,3.06 L23.85,7.776 L27.954,7.776 L25.902,3.06 Z" id="Shape"></path>
                <polygon id="Path" points="45.198 12.996 43.362 12.996 36.162 3.798 36.162 12.996 34.056 12.996 34.056 0.216 35.892 0.216 43.074 9.396 43.074 0.216 45.198 0.216"></polygon>
                <path d="M48.33,12.996 L48.33,0.216 L52.254,0.216 C54.15,0.216 55.74,0.828 57.024,2.052 C58.308,3.276 58.95,4.794 58.95,6.606 C58.95,8.418 58.308,9.936 57.024,11.16 C55.74,12.384 54.15,12.996 52.254,12.996 L48.33,12.996 Z M50.436,11.034 L52.254,11.034 C53.598,11.034 54.693,10.614 55.539,9.774 C56.385,8.934 56.808,7.878 56.808,6.606 C56.808,5.334 56.385,4.278 55.539,3.438 C54.693,2.598 53.598,2.178 52.254,2.178 L50.436,2.178 L50.436,11.034 Z" id="Shape"></path>
                <polygon id="Path" points="61.272 12.996 61.272 0.216 63.378 0.216 63.378 12.996"></polygon>
                <path d="M66.51,12.996 L66.51,0.216 L70.434,0.216 C72.33,0.216 73.92,0.828 75.204,2.052 C76.488,3.276 77.13,4.794 77.13,6.606 C77.13,8.418 76.488,9.936 75.204,11.16 C73.92,12.384 72.33,12.996 70.434,12.996 L66.51,12.996 Z M68.616,11.034 L70.434,11.034 C71.778,11.034 72.873,10.614 73.719,9.774 C74.565,8.934 74.988,7.878 74.988,6.606 C74.988,5.334 74.565,4.278 73.719,3.438 C72.873,2.598 71.778,2.178 70.434,2.178 L68.616,2.178 L68.616,11.034 Z" id="Shape"></path>
            </g>
        </g>
    </g>
</svg>